<?xml version="1.0" standalone="no"?>
<!DOCTYPE svg PUBLIC "-//W3C//DTD SVG 20010904//EN"
 "http://www.w3.org/TR/2001/REC-SVG-20010904/DTD/svg10.dtd">
<svg version="1.0" xmlns="http://www.w3.org/2000/svg"
 width="593.000000pt" height="593.000000pt" viewBox="0 0 593.000000 593.000000"
 preserveAspectRatio="xMidYMid meet">
<metadata>
Created by potrace 1.11, written by Peter Selinger 2001-2013
</metadata>
<g transform="translate(0.000000,593.000000) scale(0.100000,-0.100000)"
fill="#000000" stroke="none">
<path d="M260 3950 l0 -1980 855 0 855 0 0 1980 0 1980 -855 0 -855 0 0 -1980z"/>
<path d="M2011 3874 c1 -2041 2 -2168 32 -2270 3 -10 8 -35 11 -55 10 -69 78
-273 126 -381 245 -550 726 -960 1305 -1111 55 -15 118 -29 140 -32 22 -4 51
-9 65 -13 14 -3 465 -8 1003 -9 l977 -4 0 1976 c0 1086 -3 1975 -7 1976 -5 0
-383 1 -840 1 l-833 1 -1 61 c-7 384 -149 793 -385 1111 -166 224 -386 420
-611 546 -207 115 -458 204 -658 233 -23 4 -52 9 -65 11 -14 3 -78 8 -143 11
l-117 7 1 -2059z"/>
</g>
</svg>
